Coordinates
version=1
nRows=8
nColumns=36
inDegrees=yes

Units are S.I. units (second, meters, Newtons, ...)
If the header above contains a line with 'inDegrees', this indicates whether rotational values are in degrees (yes) or radians (no).

endheader
time	pelvis_tilt	pelvis_list	pelvis_rotation	pelvis_tx	pelvis_ty	pelvis_tz	hip_flexion_r	hip_adduction_r	hip_rotation_r	knee_angle_r	knee_angle_r_beta	ankle_angle_r	subtalar_angle_r	mtp_angle_r	hip_flexion_l	hip_adduction_l	hip_rotation_l	knee_angle_l	knee_angle_l_beta	ankle_angle_l	subtalar_angle_l	mtp_angle_l	lumbar_extension	lumbar_bending	lumbar_rotation	arm_flex_r	arm_add_r	arm_rot_r	elbow_flex_r	pro_sup_r	arm_flex_l	arm_add_l	arm_rot_l	elbow_flex_l	pro_sup_l
      4.18333330	    -29.65392102	     -0.14020023	      2.20795371	      0.07088691	      0.61572860	     -0.07087748	     93.91059544	     -7.35432464	      7.05078979	    104.95670917	      1.83184015	     31.38114822	    -22.56487728	     -7.49999987	     94.13444526	     -2.65177751	      6.25246266	    105.34963630	      1.83869802	     22.54949766	    -30.59092494	     -7.49999987	    -31.45608371	     -2.24634216	     -2.22735287	     51.86737555	     -2.69315113	     -3.74100407	     48.93348281	     80.71898696	     62.42542344	     -4.73726030	     12.06830006	     40.80907579	     67.12806495
      4.18750000	    -29.75146161	     -0.47223863	      1.99399587	      0.07515995	      0.61255513	     -0.07666308	     93.69600729	     -7.55012484	      6.60593720	    104.91533526	      1.83111804	     31.87575990	    -22.66323160	     -7.49999987	     94.60273322	     -2.22306275	      6.85232634	    106.11364841	      1.85203255	     22.67638918	    -31.26793883	     -7.49999987	    -30.77942356	     -1.85794359	     -1.83968220	     53.64554268	     -3.17615828	     -3.33298882	     48.67252258	     80.69308772	     63.78970630	     -3.71575116	     12.48762702	     42.07804690	     67.04150636
      4.19166670	    -29.50475706	     -0.82460757	      2.16389262	      0.07113233	      0.61609800	     -0.07133418	     93.41364600	     -7.62512571	      6.21867908	    104.80907896	      1.82926351	     32.19157127	    -22.44922081	     -7.49999987	     94.55771048	     -2.03625769	      7.36182248	    106.21285813	      1.85376408	     22.51240515	    -31.37104494	     -7.49999987	    -30.72156305	     -1.53232169	     -2.02740415	     55.90426500	     -3.25634761	     -1.97627565	     48.35606487	     80.57634582	     65.90305537	     -2.99463217	     13.61273241	     43.55326060	     66.78934627
      4.19583330	    -29.81884921	     -0.85616272	      1.96359507	      0.06679372	      0.61521857	     -0.07622853	     94.01224655	     -7.57562595	      6.26641665	    104.54633610	      1.82467779	     32.19809646	    -22.20279995	     -7.49999987	     95.13088195	     -1.85907618	      7.44059989	    106.36412638	      1.85640421	     22.13507314	    -31.47415655	     -7.49999987	    -29.89541158	     -1.34131353	     -2.58282046	     58.17537278	     -2.94764906	      0.27152769	     48.53729118	     80.00989454	     67.70664012	     -3.45114523	     15.36630252	     45.26196067	     65.85375242
      4.20000000	    -30.10641219	     -0.76904947	      1.66357990	      0.06769250	      0.61541576	     -0.07580808	     94.57170117	     -7.38248186	      6.31821642	    104.38641456	      1.82188663	     31.78065277	    -22.67554324	     -7.49999987	     95.50259751	     -1.93450003	      7.40328214	    106.28871317	      1.85508800	     22.12276274	    -31.58701149	     -7.49999987	    -28.97744456	     -1.54334527	     -2.48566015	     59.22615822	     -2.89245416	      0.42589003	     49.83094213	     77.78035642	     69.13266883	     -3.25058589	     15.38256821	     47.10378824	     64.81043978
      4.20416670	    -30.19289630	     -0.83135967	      1.23889393	      0.06862957	      0.61894016	     -0.07537599	     94.66814660	     -6.80551641	      6.22360751	    103.89157786	      1.81325010	     31.00575220	    -23.83954836	     -7.49999987	     95.46059435	     -2.12666041	      7.50638241	    106.20342367	      1.85359942	     21.73776965	    -31.89462075	     -7.49999987	    -28.43794957	     -1.49645250	     -2.11013795	     60.90605542	     -2.85296445	      0.99690157	     50.79980741	     77.40237873	     71.05590461	     -3.31234181	     16.19502319	     47.64246870	     63.95866815
      4.20833330	    -30.52889342	     -0.97731476	      1.12486317	      0.06970210	      0.62194453	     -0.07547822	     94.52111074	     -6.39035850	      6.20777627	    103.28539273	      1.80267017	     31.05707929	    -23.75143153	     -7.49999987	     95.48839635	     -2.12467200	      7.64629895	    105.87126589	      1.84780217	     21.53169439	    -32.04935834	     -7.49999987	    -27.62569510	     -1.36750537	     -2.27220365	     62.58867407	     -2.72170321	      2.06014765	     52.68891742	     75.92464801	     73.05199909	     -3.24130905	     17.31674107	     48.60588002	     62.89700681
      4.21250000	    -30.77979675	     -0.98406940	      1.17304807	      0.07452031	      0.62223753	     -0.07196781	     94.31119813	     -6.22984087	      6.23032809	    103.16931604	      1.80064425	     31.19170150	    -23.94846631	     -7.49999987	     95.53061040	     -2.31051590	      7.76016382	    105.65144588	      1.84396559	     21.47432600	    -31.87841961	     -7.49999987	    -26.64464902	     -1.42866603	     -2.41074015	     63.95091814	     -2.49927246	      2.25942905	     53.27992871	     75.92037889	     74.39224499	     -2.85891163	     17.42106895	     49.02525845	     62.83676425
